<svg version="1.1"
    baseProfile="full"
    width="400" height="400"
    xmlns="http://www.w3.org/2000/svg">

  <rect width="100%" height="100%" fill="white"/>
  <line x1="200" y1="0" x2="200" y2="200" stroke="rgb(255, 0, 0)" stroke-width="2"/>
  <line x1="200" y1="10" x2="190" y2="200" stroke="rgb(255, 0, 0)" stroke-width="2"/>
  <line x1="200" y1="20" x2="180" y2="200" stroke="rgb(255, 0, 0)" stroke-width="2"/>
  <line x1="200" y1="30" x2="170" y2="200" stroke="rgb(255, 0, 0)" stroke-width="2"/>
  <line x1="200" y1="40" x2="160" y2="200" stroke="rgb(255, 0, 0)" stroke-width="2"/>
  <line x1="200" y1="50" x2="150" y2="200" stroke="rgb(255, 0, 0)" stroke-width="2"/>
  <line x1="200" y1="60" x2="140" y2="200" stroke="rgb(255, 0, 0)" stroke-width="2"/>
  <line x1="200" y1="70" x2="130" y2="200" stroke="rgb(255, 0, 0)" stroke-width="2"/>
  <line x1="200" y1="80" x2="120" y2="200" stroke="rgb(255, 0, 0)" stroke-width="2"/>
  <line x1="200" y1="90" x2="110" y2="200" stroke="rgb(255, 0, 0)" stroke-width="2"/>
  <line x1="200" y1="100" x2="100" y2="200" stroke="rgb(255, 0, 0)" stroke-width="2"/>
  <line x1="200" y1="110" x2="90" y2="200" stroke="rgb(255, 0, 0)" stroke-width="2"/>
  <line x1="200" y1="120" x2="80" y2="200" stroke="rgb(255, 0, 0)" stroke-width="2"/>
  <line x1="200" y1="130" x2="70" y2="200" stroke="rgb(255, 0, 0)" stroke-width="2"/>
  <line x1="200" y1="140" x2="60" y2="200" stroke="rgb(255, 0, 0)" stroke-width="2"/>
  <line x1="200" y1="150" x2="50" y2="200" stroke="rgb(255, 0, 0)" stroke-width="2"/>
  <line x1="200" y1="160" x2="40" y2="200" stroke="rgb(255, 0, 0)" stroke-width="2"/>
  <line x1="200" y1="170" x2="30" y2="200" stroke="rgb(255, 0, 0)" stroke-width="2"/>
  <line x1="200" y1="180" x2="20" y2="200" stroke="rgb(255, 0, 0)" stroke-width="2"/>
  <line x1="200" y1="190" x2="10" y2="200" stroke="rgb(255, 0, 0)" stroke-width="2"/>
  <line x1="200" y1="200" x2="0" y2="200" stroke="rgb(255, 0, 0)" stroke-width="2"/>
  <line x1="200" y1="200" x2="400" y2="200" stroke="rgb(255, 0, 0)" stroke-width="2"/>
  <line x1="200" y1="210" x2="390" y2="200" stroke="rgb(255, 0, 0)" stroke-width="2"/>
  <line x1="200" y1="220" x2="380" y2="200" stroke="rgb(255, 0, 0)" stroke-width="2"/>
  <line x1="200" y1="230" x2="370" y2="200" stroke="rgb(255, 0, 0)" stroke-width="2"/>
  <line x1="200" y1="240" x2="360" y2="200" stroke="rgb(255, 0, 0)" stroke-width="2"/>
  <line x1="200" y1="250" x2="350" y2="200" stroke="rgb(255, 0, 0)" stroke-width="2"/>
  <line x1="200" y1="260" x2="340" y2="200" stroke="rgb(255, 0, 0)" stroke-width="2"/>
  <line x1="200" y1="270" x2="330" y2="200" stroke="rgb(255, 0, 0)" stroke-width="2"/>
  <line x1="200" y1="280" x2="320" y2="200" stroke="rgb(255, 0, 0)" stroke-width="2"/>
  <line x1="200" y1="290" x2="310" y2="200" stroke="rgb(255, 0, 0)" stroke-width="2"/>
  <line x1="200" y1="300" x2="300" y2="200" stroke="rgb(255, 0, 0)" stroke-width="2"/>
  <line x1="200" y1="310" x2="290" y2="200" stroke="rgb(255, 0, 0)" stroke-width="2"/>
  <line x1="200" y1="320" x2="280" y2="200" stroke="rgb(255, 0, 0)" stroke-width="2"/>
  <line x1="200" y1="330" x2="270" y2="200" stroke="rgb(255, 0, 0)" stroke-width="2"/>
  <line x1="200" y1="340" x2="260" y2="200" stroke="rgb(255, 0, 0)" stroke-width="2"/>
  <line x1="200" y1="350" x2="250" y2="200" stroke="rgb(255, 0, 0)" stroke-width="2"/>
  <line x1="200" y1="360" x2="240" y2="200" stroke="rgb(255, 0, 0)" stroke-width="2"/>
  <line x1="200" y1="370" x2="230" y2="200" stroke="rgb(255, 0, 0)" stroke-width="2"/>
  <line x1="200" y1="380" x2="220" y2="200" stroke="rgb(255, 0, 0)" stroke-width="2"/>
  <line x1="200" y1="390" x2="210" y2="200" stroke="rgb(255, 0, 0)" stroke-width="2"/>
  <line x1="200" y1="400" x2="200" y2="200" stroke="rgb(255, 0, 0)" stroke-width="2"/>
  <line x1="200" y1="200" x2="0" y2="200" stroke="rgb(255, 0, 0)" stroke-width="2"/>
  <line x1="200" y1="210" x2="10" y2="200" stroke="rgb(255, 0, 0)" stroke-width="2"/>
  <line x1="200" y1="220" x2="20" y2="200" stroke="rgb(255, 0, 0)" stroke-width="2"/>
  <line x1="200" y1="230" x2="30" y2="200" stroke="rgb(255, 0, 0)" stroke-width="2"/>
  <line x1="200" y1="240" x2="40" y2="200" stroke="rgb(255, 0, 0)" stroke-width="2"/>
  <line x1="200" y1="250" x2="50" y2="200" stroke="rgb(255, 0, 0)" stroke-width="2"/>
  <line x1="200" y1="260" x2="60" y2="200" stroke="rgb(255, 0, 0)" stroke-width="2"/>
  <line x1="200" y1="270" x2="70" y2="200" stroke="rgb(255, 0, 0)" stroke-width="2"/>
  <line x1="200" y1="280" x2="80" y2="200" stroke="rgb(255, 0, 0)" stroke-width="2"/>
  <line x1="200" y1="290" x2="90" y2="200" stroke="rgb(255, 0, 0)" stroke-width="2"/>
  <line x1="200" y1="300" x2="100" y2="200" stroke="rgb(255, 0, 0)" stroke-width="2"/>
  <line x1="200" y1="310" x2="110" y2="200" stroke="rgb(255, 0, 0)" stroke-width="2"/>
  <line x1="200" y1="320" x2="120" y2="200" stroke="rgb(255, 0, 0)" stroke-width="2"/>
  <line x1="200" y1="330" x2="130" y2="200" stroke="rgb(255, 0, 0)" stroke-width="2"/>
  <line x1="200" y1="340" x2="140" y2="200" stroke="rgb(255, 0, 0)" stroke-width="2"/>
  <line x1="200" y1="350" x2="150" y2="200" stroke="rgb(255, 0, 0)" stroke-width="2"/>
  <line x1="200" y1="360" x2="160" y2="200" stroke="rgb(255, 0, 0)" stroke-width="2"/>
  <line x1="200" y1="370" x2="170" y2="200" stroke="rgb(255, 0, 0)" stroke-width="2"/>
  <line x1="200" y1="380" x2="180" y2="200" stroke="rgb(255, 0, 0)" stroke-width="2"/>
  <line x1="200" y1="390" x2="190" y2="200" stroke="rgb(255, 0, 0)" stroke-width="2"/>
  <line x1="200" y1="400" x2="200" y2="200" stroke="rgb(255, 0, 0)" stroke-width="2"/>
  <line x1="200" y1="0" x2="200" y2="200" stroke="rgb(255, 0, 0)" stroke-width="2"/>
  <line x1="200" y1="10" x2="210" y2="200" stroke="rgb(255, 0, 0)" stroke-width="2"/>
  <line x1="200" y1="20" x2="220" y2="200" stroke="rgb(255, 0, 0)" stroke-width="2"/>
  <line x1="200" y1="30" x2="230" y2="200" stroke="rgb(255, 0, 0)" stroke-width="2"/>
  <line x1="200" y1="40" x2="240" y2="200" stroke="rgb(255, 0, 0)" stroke-width="2"/>
  <line x1="200" y1="50" x2="250" y2="200" stroke="rgb(255, 0, 0)" stroke-width="2"/>
  <line x1="200" y1="60" x2="260" y2="200" stroke="rgb(255, 0, 0)" stroke-width="2"/>
  <line x1="200" y1="70" x2="270" y2="200" stroke="rgb(255, 0, 0)" stroke-width="2"/>
  <line x1="200" y1="80" x2="280" y2="200" stroke="rgb(255, 0, 0)" stroke-width="2"/>
  <line x1="200" y1="90" x2="290" y2="200" stroke="rgb(255, 0, 0)" stroke-width="2"/>
  <line x1="200" y1="100" x2="300" y2="200" stroke="rgb(255, 0, 0)" stroke-width="2"/>
  <line x1="200" y1="110" x2="310" y2="200" stroke="rgb(255, 0, 0)" stroke-width="2"/>
  <line x1="200" y1="120" x2="320" y2="200" stroke="rgb(255, 0, 0)" stroke-width="2"/>
  <line x1="200" y1="130" x2="330" y2="200" stroke="rgb(255, 0, 0)" stroke-width="2"/>
  <line x1="200" y1="140" x2="340" y2="200" stroke="rgb(255, 0, 0)" stroke-width="2"/>
  <line x1="200" y1="150" x2="350" y2="200" stroke="rgb(255, 0, 0)" stroke-width="2"/>
  <line x1="200" y1="160" x2="360" y2="200" stroke="rgb(255, 0, 0)" stroke-width="2"/>
  <line x1="200" y1="170" x2="370" y2="200" stroke="rgb(255, 0, 0)" stroke-width="2"/>
  <line x1="200" y1="180" x2="380" y2="200" stroke="rgb(255, 0, 0)" stroke-width="2"/>
  <line x1="200" y1="190" x2="390" y2="200" stroke="rgb(255, 0, 0)" stroke-width="2"/>
  <line x1="200" y1="200" x2="400" y2="200" stroke="rgb(255, 0, 0)" stroke-width="2"/>
</svg>
