<svg version="1.1"
    baseProfile="full"
    width="400" height="400"
    xmlns="http://www.w3.org/2000/svg">

  <rect width="100%" height="100%" fill="white"/>
  <line x1="45" y1="25" x2="16" y2="42" stroke="rgb(88, 229, 0)" stroke-width="2"/>
  <line x1="16" y1="42" x2="15" y2="8" stroke="rgb(88, 229, 0)" stroke-width="2"/>
  <line x1="45" y1="25" x2="15" y2="8" stroke="rgb(88, 229, 0)" stroke-width="2"/>
  <line x1="95" y1="25" x2="75" y2="45" stroke="rgb(88, 229, 0)" stroke-width="2"/>
  <line x1="75" y1="45" x2="55" y2="25" stroke="rgb(88, 229, 0)" stroke-width="2"/>
  <line x1="55" y1="25" x2="75" y2="5" stroke="rgb(88, 229, 0)" stroke-width="2"/>
  <line x1="95" y1="25" x2="75" y2="5" stroke="rgb(88, 229, 0)" stroke-width="2"/>
  <line x1="145" y1="25" x2="131" y2="44" stroke="rgb(88, 229, 0)" stroke-width="2"/>
  <line x1="131" y1="44" x2="109" y2="36" stroke="rgb(88, 229, 0)" stroke-width="2"/>
  <line x1="109" y1="36" x2="109" y2="14" stroke="rgb(88, 229, 0)" stroke-width="2"/>
  <line x1="109" y1="14" x2="131" y2="6" stroke="rgb(88, 229, 0)" stroke-width="2"/>
  <line x1="145" y1="25" x2="131" y2="6" stroke="rgb(88, 229, 0)" stroke-width="2"/>
  <line x1="195" y1="25" x2="185" y2="42" stroke="rgb(88, 229, 0)" stroke-width="2"/>
  <line x1="185" y1="42" x2="166" y2="42" stroke="rgb(88, 229, 0)" stroke-width="2"/>
  <line x1="166" y1="42" x2="155" y2="25" stroke="rgb(88, 229, 0)" stroke-width="2"/>
  <line x1="155" y1="25" x2="165" y2="8" stroke="rgb(88, 229, 0)" stroke-width="2"/>
  <line x1="165" y1="8" x2="185" y2="8" stroke="rgb(88, 229, 0)" stroke-width="2"/>
  <line x1="195" y1="25" x2="185" y2="8" stroke="rgb(88, 229, 0)" stroke-width="2"/>
  <line x1="245" y1="25" x2="237" y2="40" stroke="rgb(88, 229, 0)" stroke-width="2"/>
  <line x1="237" y1="40" x2="221" y2="44" stroke="rgb(88, 229, 0)" stroke-width="2"/>
  <line x1="221" y1="44" x2="207" y2="33" stroke="rgb(88, 229, 0)" stroke-width="2"/>
  <line x1="207" y1="33" x2="207" y2="17" stroke="rgb(88, 229, 0)" stroke-width="2"/>
  <line x1="207" y1="17" x2="221" y2="6" stroke="rgb(88, 229, 0)" stroke-width="2"/>
  <line x1="221" y1="6" x2="237" y2="10" stroke="rgb(88, 229, 0)" stroke-width="2"/>
  <line x1="245" y1="25" x2="237" y2="10" stroke="rgb(88, 229, 0)" stroke-width="2"/>
  <line x1="295" y1="25" x2="289" y2="39" stroke="rgb(88, 229, 0)" stroke-width="2"/>
  <line x1="289" y1="39" x2="275" y2="45" stroke="rgb(88, 229, 0)" stroke-width="2"/>
  <line x1="275" y1="45" x2="261" y2="39" stroke="rgb(88, 229, 0)" stroke-width="2"/>
  <line x1="261" y1="39" x2="255" y2="25" stroke="rgb(88, 229, 0)" stroke-width="2"/>
  <line x1="255" y1="25" x2="261" y2="11" stroke="rgb(88, 229, 0)" stroke-width="2"/>
  <line x1="261" y1="11" x2="275" y2="5" stroke="rgb(88, 229, 0)" stroke-width="2"/>
  <line x1="275" y1="5" x2="289" y2="11" stroke="rgb(88, 229, 0)" stroke-width="2"/>
  <line x1="295" y1="25" x2="289" y2="11" stroke="rgb(88, 229, 0)" stroke-width="2"/>
  <line x1="345" y1="25" x2="340" y2="37" stroke="rgb(88, 229, 0)" stroke-width="2"/>
  <line x1="340" y1="37" x2="328" y2="44" stroke="rgb(88, 229, 0)" stroke-width="2"/>
  <line x1="328" y1="44" x2="316" y2="42" stroke="rgb(88, 229, 0)" stroke-width="2"/>
  <line x1="316" y1="42" x2="307" y2="31" stroke="rgb(88, 229, 0)" stroke-width="2"/>
  <line x1="307" y1="31" x2="307" y2="19" stroke="rgb(88, 229, 0)" stroke-width="2"/>
  <line x1="307" y1="19" x2="315" y2="8" stroke="rgb(88, 229, 0)" stroke-width="2"/>
  <line x1="315" y1="8" x2="328" y2="6" stroke="rgb(88, 229, 0)" stroke-width="2"/>
  <line x1="328" y1="6" x2="340" y2="13" stroke="rgb(88, 229, 0)" stroke-width="2"/>
  <line x1="345" y1="25" x2="340" y2="13" stroke="rgb(88, 229, 0)" stroke-width="2"/>
  <line x1="395" y1="25" x2="391" y2="36" stroke="rgb(88, 229, 0)" stroke-width="2"/>
  <line x1="391" y1="36" x2="381" y2="44" stroke="rgb(88, 229, 0)" stroke-width="2"/>
  <line x1="381" y1="44" x2="369" y2="44" stroke="rgb(88, 229, 0)" stroke-width="2"/>
  <line x1="369" y1="44" x2="359" y2="36" stroke="rgb(88, 229, 0)" stroke-width="2"/>
  <line x1="359" y1="36" x2="355" y2="25" stroke="rgb(88, 229, 0)" stroke-width="2"/>
  <line x1="355" y1="25" x2="359" y2="14" stroke="rgb(88, 229, 0)" stroke-width="2"/>
  <line x1="359" y1="14" x2="369" y2="6" stroke="rgb(88, 229, 0)" stroke-width="2"/>
  <line x1="369" y1="6" x2="381" y2="6" stroke="rgb(88, 229, 0)" stroke-width="2"/>
  <line x1="381" y1="6" x2="391" y2="14" stroke="rgb(88, 229, 0)" stroke-width="2"/>
  <line x1="395" y1="25" x2="391" y2="14" stroke="rgb(88, 229, 0)" stroke-width="2"/>
  <line x1="45" y1="75" x2="16" y2="92" stroke="rgb(102, 196, 0)" stroke-width="2"/>
  <line x1="16" y1="92" x2="15" y2="58" stroke="rgb(102, 196, 0)" stroke-width="2"/>
  <line x1="45" y1="75" x2="15" y2="58" stroke="rgb(102, 196, 0)" stroke-width="2"/>
  <line x1="95" y1="75" x2="75" y2="95" stroke="rgb(102, 196, 0)" stroke-width="2"/>
  <line x1="75" y1="95" x2="55" y2="75" stroke="rgb(102, 196, 0)" stroke-width="2"/>
  <line x1="55" y1="75" x2="75" y2="55" stroke="rgb(102, 196, 0)" stroke-width="2"/>
  <line x1="95" y1="75" x2="75" y2="55" stroke="rgb(102, 196, 0)" stroke-width="2"/>
  <line x1="145" y1="75" x2="131" y2="94" stroke="rgb(102, 196, 0)" stroke-width="2"/>
  <line x1="131" y1="94" x2="109" y2="86" stroke="rgb(102, 196, 0)" stroke-width="2"/>
  <line x1="109" y1="86" x2="109" y2="64" stroke="rgb(102, 196, 0)" stroke-width="2"/>
  <line x1="109" y1="64" x2="131" y2="56" stroke="rgb(102, 196, 0)" stroke-width="2"/>
  <line x1="145" y1="75" x2="131" y2="56" stroke="rgb(102, 196, 0)" stroke-width="2"/>
  <line x1="195" y1="75" x2="185" y2="92" stroke="rgb(102, 196, 0)" stroke-width="2"/>
  <line x1="185" y1="92" x2="166" y2="92" stroke="rgb(102, 196, 0)" stroke-width="2"/>
  <line x1="166" y1="92" x2="155" y2="75" stroke="rgb(102, 196, 0)" stroke-width="2"/>
  <line x1="155" y1="75" x2="165" y2="58" stroke="rgb(102, 196, 0)" stroke-width="2"/>
  <line x1="165" y1="58" x2="185" y2="58" stroke="rgb(102, 196, 0)" stroke-width="2"/>
  <line x1="195" y1="75" x2="185" y2="58" stroke="rgb(102, 196, 0)" stroke-width="2"/>
  <line x1="245" y1="75" x2="237" y2="90" stroke="rgb(102, 196, 0)" stroke-width="2"/>
  <line x1="237" y1="90" x2="221" y2="94" stroke="rgb(102, 196, 0)" stroke-width="2"/>
  <line x1="221" y1="94" x2="207" y2="83" stroke="rgb(102, 196, 0)" stroke-width="2"/>
  <line x1="207" y1="83" x2="207" y2="67" stroke="rgb(102, 196, 0)" stroke-width="2"/>
  <line x1="207" y1="67" x2="221" y2="56" stroke="rgb(102, 196, 0)" stroke-width="2"/>
  <line x1="221" y1="56" x2="237" y2="60" stroke="rgb(102, 196, 0)" stroke-width="2"/>
  <line x1="245" y1="75" x2="237" y2="60" stroke="rgb(102, 196, 0)" stroke-width="2"/>
  <line x1="295" y1="75" x2="289" y2="89" stroke="rgb(102, 196, 0)" stroke-width="2"/>
  <line x1="289" y1="89" x2="275" y2="95" stroke="rgb(102, 196, 0)" stroke-width="2"/>
  <line x1="275" y1="95" x2="261" y2="89" stroke="rgb(102, 196, 0)" stroke-width="2"/>
  <line x1="261" y1="89" x2="255" y2="75" stroke="rgb(102, 196, 0)" stroke-width="2"/>
  <line x1="255" y1="75" x2="261" y2="61" stroke="rgb(102, 196, 0)" stroke-width="2"/>
  <line x1="261" y1="61" x2="275" y2="55" stroke="rgb(102, 196, 0)" stroke-width="2"/>
  <line x1="275" y1="55" x2="289" y2="61" stroke="rgb(102, 196, 0)" stroke-width="2"/>
  <line x1="295" y1="75" x2="289" y2="61" stroke="rgb(102, 196, 0)" stroke-width="2"/>
  <line x1="345" y1="75" x2="340" y2="87" stroke="rgb(102, 196, 0)" stroke-width="2"/>
  <line x1="340" y1="87" x2="328" y2="94" stroke="rgb(102, 196, 0)" stroke-width="2"/>
  <line x1="328" y1="94" x2="316" y2="92" stroke="rgb(102, 196, 0)" stroke-width="2"/>
  <line x1="316" y1="92" x2="307" y2="81" stroke="rgb(102, 196, 0)" stroke-width="2"/>
  <line x1="307" y1="81" x2="307" y2="69" stroke="rgb(102, 196, 0)" stroke-width="2"/>
  <line x1="307" y1="69" x2="315" y2="58" stroke="rgb(102, 196, 0)" stroke-width="2"/>
  <line x1="315" y1="58" x2="328" y2="56" stroke="rgb(102, 196, 0)" stroke-width="2"/>
  <line x1="328" y1="56" x2="340" y2="63" stroke="rgb(102, 196, 0)" stroke-width="2"/>
  <line x1="345" y1="75" x2="340" y2="63" stroke="rgb(102, 196, 0)" stroke-width="2"/>
  <line x1="395" y1="75" x2="391" y2="86" stroke="rgb(102, 196, 0)" stroke-width="2"/>
  <line x1="391" y1="86" x2="381" y2="94" stroke="rgb(102, 196, 0)" stroke-width="2"/>
  <line x1="381" y1="94" x2="369" y2="94" stroke="rgb(102, 196, 0)" stroke-width="2"/>
  <line x1="369" y1="94" x2="359" y2="86" stroke="rgb(102, 196, 0)" stroke-width="2"/>
  <line x1="359" y1="86" x2="355" y2="75" stroke="rgb(102, 196, 0)" stroke-width="2"/>
  <line x1="355" y1="75" x2="359" y2="64" stroke="rgb(102, 196, 0)" stroke-width="2"/>
  <line x1="359" y1="64" x2="369" y2="56" stroke="rgb(102, 196, 0)" stroke-width="2"/>
  <line x1="369" y1="56" x2="381" y2="56" stroke="rgb(102, 196, 0)" stroke-width="2"/>
  <line x1="381" y1="56" x2="391" y2="64" stroke="rgb(102, 196, 0)" stroke-width="2"/>
  <line x1="395" y1="75" x2="391" y2="64" stroke="rgb(102, 196, 0)" stroke-width="2"/>
  <line x1="45" y1="125" x2="16" y2="142" stroke="rgb(117, 164, 0)" stroke-width="2"/>
  <line x1="16" y1="142" x2="15" y2="108" stroke="rgb(117, 164, 0)" stroke-width="2"/>
  <line x1="45" y1="125" x2="15" y2="108" stroke="rgb(117, 164, 0)" stroke-width="2"/>
  <line x1="95" y1="125" x2="75" y2="145" stroke="rgb(117, 164, 0)" stroke-width="2"/>
  <line x1="75" y1="145" x2="55" y2="125" stroke="rgb(117, 164, 0)" stroke-width="2"/>
  <line x1="55" y1="125" x2="75" y2="105" stroke="rgb(117, 164, 0)" stroke-width="2"/>
  <line x1="95" y1="125" x2="75" y2="105" stroke="rgb(117, 164, 0)" stroke-width="2"/>
  <line x1="145" y1="125" x2="131" y2="144" stroke="rgb(117, 164, 0)" stroke-width="2"/>
  <line x1="131" y1="144" x2="109" y2="136" stroke="rgb(117, 164, 0)" stroke-width="2"/>
  <line x1="109" y1="136" x2="109" y2="114" stroke="rgb(117, 164, 0)" stroke-width="2"/>
  <line x1="109" y1="114" x2="131" y2="106" stroke="rgb(117, 164, 0)" stroke-width="2"/>
  <line x1="145" y1="125" x2="131" y2="106" stroke="rgb(117, 164, 0)" stroke-width="2"/>
  <line x1="195" y1="125" x2="185" y2="142" stroke="rgb(117, 164, 0)" stroke-width="2"/>
  <line x1="185" y1="142" x2="166" y2="142" stroke="rgb(117, 164, 0)" stroke-width="2"/>
  <line x1="166" y1="142" x2="155" y2="125" stroke="rgb(117, 164, 0)" stroke-width="2"/>
  <line x1="155" y1="125" x2="165" y2="108" stroke="rgb(117, 164, 0)" stroke-width="2"/>
  <line x1="165" y1="108" x2="185" y2="108" stroke="rgb(117, 164, 0)" stroke-width="2"/>
  <line x1="195" y1="125" x2="185" y2="108" stroke="rgb(117, 164, 0)" stroke-width="2"/>
  <line x1="245" y1="125" x2="237" y2="140" stroke="rgb(117, 164, 0)" stroke-width="2"/>
  <line x1="237" y1="140" x2="221" y2="144" stroke="rgb(117, 164, 0)" stroke-width="2"/>
  <line x1="221" y1="144" x2="207" y2="133" stroke="rgb(117, 164, 0)" stroke-width="2"/>
  <line x1="207" y1="133" x2="207" y2="117" stroke="rgb(117, 164, 0)" stroke-width="2"/>
  <line x1="207" y1="117" x2="221" y2="106" stroke="rgb(117, 164, 0)" stroke-width="2"/>
  <line x1="221" y1="106" x2="237" y2="110" stroke="rgb(117, 164, 0)" stroke-width="2"/>
  <line x1="245" y1="125" x2="237" y2="110" stroke="rgb(117, 164, 0)" stroke-width="2"/>
  <line x1="295" y1="125" x2="289" y2="139" stroke="rgb(117, 164, 0)" stroke-width="2"/>
  <line x1="289" y1="139" x2="275" y2="145" stroke="rgb(117, 164, 0)" stroke-width="2"/>
  <line x1="275" y1="145" x2="261" y2="139" stroke="rgb(117, 164, 0)" stroke-width="2"/>
  <line x1="261" y1="139" x2="255" y2="125" stroke="rgb(117, 164, 0)" stroke-width="2"/>
  <line x1="255" y1="125" x2="261" y2="111" stroke="rgb(117, 164, 0)" stroke-width="2"/>
  <line x1="261" y1="111" x2="275" y2="105" stroke="rgb(117, 164, 0)" stroke-width="2"/>
  <line x1="275" y1="105" x2="289" y2="111" stroke="rgb(117, 164, 0)" stroke-width="2"/>
  <line x1="295" y1="125" x2="289" y2="111" stroke="rgb(117, 164, 0)" stroke-width="2"/>
  <line x1="345" y1="125" x2="340" y2="137" stroke="rgb(117, 164, 0)" stroke-width="2"/>
  <line x1="340" y1="137" x2="328" y2="144" stroke="rgb(117, 164, 0)" stroke-width="2"/>
  <line x1="328" y1="144" x2="316" y2="142" stroke="rgb(117, 164, 0)" stroke-width="2"/>
  <line x1="316" y1="142" x2="307" y2="131" stroke="rgb(117, 164, 0)" stroke-width="2"/>
  <line x1="307" y1="131" x2="307" y2="119" stroke="rgb(117, 164, 0)" stroke-width="2"/>
  <line x1="307" y1="119" x2="315" y2="108" stroke="rgb(117, 164, 0)" stroke-width="2"/>
  <line x1="315" y1="108" x2="328" y2="106" stroke="rgb(117, 164, 0)" stroke-width="2"/>
  <line x1="328" y1="106" x2="340" y2="113" stroke="rgb(117, 164, 0)" stroke-width="2"/>
  <line x1="345" y1="125" x2="340" y2="113" stroke="rgb(117, 164, 0)" stroke-width="2"/>
  <line x1="395" y1="125" x2="391" y2="136" stroke="rgb(117, 164, 0)" stroke-width="2"/>
  <line x1="391" y1="136" x2="381" y2="144" stroke="rgb(117, 164, 0)" stroke-width="2"/>
  <line x1="381" y1="144" x2="369" y2="144" stroke="rgb(117, 164, 0)" stroke-width="2"/>
  <line x1="369" y1="144" x2="359" y2="136" stroke="rgb(117, 164, 0)" stroke-width="2"/>
  <line x1="359" y1="136" x2="355" y2="125" stroke="rgb(117, 164, 0)" stroke-width="2"/>
  <line x1="355" y1="125" x2="359" y2="114" stroke="rgb(117, 164, 0)" stroke-width="2"/>
  <line x1="359" y1="114" x2="369" y2="106" stroke="rgb(117, 164, 0)" stroke-width="2"/>
  <line x1="369" y1="106" x2="381" y2="106" stroke="rgb(117, 164, 0)" stroke-width="2"/>
  <line x1="381" y1="106" x2="391" y2="114" stroke="rgb(117, 164, 0)" stroke-width="2"/>
  <line x1="395" y1="125" x2="391" y2="114" stroke="rgb(117, 164, 0)" stroke-width="2"/>
  <line x1="45" y1="175" x2="16" y2="192" stroke="rgb(132, 131, 0)" stroke-width="2"/>
  <line x1="16" y1="192" x2="15" y2="158" stroke="rgb(132, 131, 0)" stroke-width="2"/>
  <line x1="45" y1="175" x2="15" y2="158" stroke="rgb(132, 131, 0)" stroke-width="2"/>
  <line x1="95" y1="175" x2="75" y2="195" stroke="rgb(132, 131, 0)" stroke-width="2"/>
  <line x1="75" y1="195" x2="55" y2="175" stroke="rgb(132, 131, 0)" stroke-width="2"/>
  <line x1="55" y1="175" x2="75" y2="155" stroke="rgb(132, 131, 0)" stroke-width="2"/>
  <line x1="95" y1="175" x2="75" y2="155" stroke="rgb(132, 131, 0)" stroke-width="2"/>
  <line x1="145" y1="175" x2="131" y2="194" stroke="rgb(132, 131, 0)" stroke-width="2"/>
  <line x1="131" y1="194" x2="109" y2="186" stroke="rgb(132, 131, 0)" stroke-width="2"/>
  <line x1="109" y1="186" x2="109" y2="164" stroke="rgb(132, 131, 0)" stroke-width="2"/>
  <line x1="109" y1="164" x2="131" y2="156" stroke="rgb(132, 131, 0)" stroke-width="2"/>
  <line x1="145" y1="175" x2="131" y2="156" stroke="rgb(132, 131, 0)" stroke-width="2"/>
  <line x1="195" y1="175" x2="185" y2="192" stroke="rgb(132, 131, 0)" stroke-width="2"/>
  <line x1="185" y1="192" x2="166" y2="192" stroke="rgb(132, 131, 0)" stroke-width="2"/>
  <line x1="166" y1="192" x2="155" y2="175" stroke="rgb(132, 131, 0)" stroke-width="2"/>
  <line x1="155" y1="175" x2="165" y2="158" stroke="rgb(132, 131, 0)" stroke-width="2"/>
  <line x1="165" y1="158" x2="185" y2="158" stroke="rgb(132, 131, 0)" stroke-width="2"/>
  <line x1="195" y1="175" x2="185" y2="158" stroke="rgb(132, 131, 0)" stroke-width="2"/>
  <line x1="245" y1="175" x2="237" y2="190" stroke="rgb(132, 131, 0)" stroke-width="2"/>
  <line x1="237" y1="190" x2="221" y2="194" stroke="rgb(132, 131, 0)" stroke-width="2"/>
  <line x1="221" y1="194" x2="207" y2="183" stroke="rgb(132, 131, 0)" stroke-width="2"/>
  <line x1="207" y1="183" x2="207" y2="167" stroke="rgb(132, 131, 0)" stroke-width="2"/>
  <line x1="207" y1="167" x2="221" y2="156" stroke="rgb(132, 131, 0)" stroke-width="2"/>
  <line x1="221" y1="156" x2="237" y2="160" stroke="rgb(132, 131, 0)" stroke-width="2"/>
  <line x1="245" y1="175" x2="237" y2="160" stroke="rgb(132, 131, 0)" stroke-width="2"/>
  <line x1="295" y1="175" x2="289" y2="189" stroke="rgb(132, 131, 0)" stroke-width="2"/>
  <line x1="289" y1="189" x2="275" y2="195" stroke="rgb(132, 131, 0)" stroke-width="2"/>
  <line x1="275" y1="195" x2="261" y2="189" stroke="rgb(132, 131, 0)" stroke-width="2"/>
  <line x1="261" y1="189" x2="255" y2="175" stroke="rgb(132, 131, 0)" stroke-width="2"/>
  <line x1="255" y1="175" x2="261" y2="161" stroke="rgb(132, 131, 0)" stroke-width="2"/>
  <line x1="261" y1="161" x2="275" y2="155" stroke="rgb(132, 131, 0)" stroke-width="2"/>
  <line x1="275" y1="155" x2="289" y2="161" stroke="rgb(132, 131, 0)" stroke-width="2"/>
  <line x1="295" y1="175" x2="289" y2="161" stroke="rgb(132, 131, 0)" stroke-width="2"/>
  <line x1="345" y1="175" x2="340" y2="187" stroke="rgb(132, 131, 0)" stroke-width="2"/>
  <line x1="340" y1="187" x2="328" y2="194" stroke="rgb(132, 131, 0)" stroke-width="2"/>
  <line x1="328" y1="194" x2="316" y2="192" stroke="rgb(132, 131, 0)" stroke-width="2"/>
  <line x1="316" y1="192" x2="307" y2="181" stroke="rgb(132, 131, 0)" stroke-width="2"/>
  <line x1="307" y1="181" x2="307" y2="169" stroke="rgb(132, 131, 0)" stroke-width="2"/>
  <line x1="307" y1="169" x2="315" y2="158" stroke="rgb(132, 131, 0)" stroke-width="2"/>
  <line x1="315" y1="158" x2="328" y2="156" stroke="rgb(132, 131, 0)" stroke-width="2"/>
  <line x1="328" y1="156" x2="340" y2="163" stroke="rgb(132, 131, 0)" stroke-width="2"/>
  <line x1="345" y1="175" x2="340" y2="163" stroke="rgb(132, 131, 0)" stroke-width="2"/>
  <line x1="395" y1="175" x2="391" y2="186" stroke="rgb(132, 131, 0)" stroke-width="2"/>
  <line x1="391" y1="186" x2="381" y2="194" stroke="rgb(132, 131, 0)" stroke-width="2"/>
  <line x1="381" y1="194" x2="369" y2="194" stroke="rgb(132, 131, 0)" stroke-width="2"/>
  <line x1="369" y1="194" x2="359" y2="186" stroke="rgb(132, 131, 0)" stroke-width="2"/>
  <line x1="359" y1="186" x2="355" y2="175" stroke="rgb(132, 131, 0)" stroke-width="2"/>
  <line x1="355" y1="175" x2="359" y2="164" stroke="rgb(132, 131, 0)" stroke-width="2"/>
  <line x1="359" y1="164" x2="369" y2="156" stroke="rgb(132, 131, 0)" stroke-width="2"/>
  <line x1="369" y1="156" x2="381" y2="156" stroke="rgb(132, 131, 0)" stroke-width="2"/>
  <line x1="381" y1="156" x2="391" y2="164" stroke="rgb(132, 131, 0)" stroke-width="2"/>
  <line x1="395" y1="175" x2="391" y2="164" stroke="rgb(132, 131, 0)" stroke-width="2"/>
  <line x1="45" y1="225" x2="16" y2="242" stroke="rgb(146, 99, 0)" stroke-width="2"/>
  <line x1="16" y1="242" x2="15" y2="208" stroke="rgb(146, 99, 0)" stroke-width="2"/>
  <line x1="45" y1="225" x2="15" y2="208" stroke="rgb(146, 99, 0)" stroke-width="2"/>
  <line x1="95" y1="225" x2="75" y2="245" stroke="rgb(146, 99, 0)" stroke-width="2"/>
  <line x1="75" y1="245" x2="55" y2="225" stroke="rgb(146, 99, 0)" stroke-width="2"/>
  <line x1="55" y1="225" x2="75" y2="205" stroke="rgb(146, 99, 0)" stroke-width="2"/>
  <line x1="95" y1="225" x2="75" y2="205" stroke="rgb(146, 99, 0)" stroke-width="2"/>
  <line x1="145" y1="225" x2="131" y2="244" stroke="rgb(146, 99, 0)" stroke-width="2"/>
  <line x1="131" y1="244" x2="109" y2="236" stroke="rgb(146, 99, 0)" stroke-width="2"/>
  <line x1="109" y1="236" x2="109" y2="214" stroke="rgb(146, 99, 0)" stroke-width="2"/>
  <line x1="109" y1="214" x2="131" y2="206" stroke="rgb(146, 99, 0)" stroke-width="2"/>
  <line x1="145" y1="225" x2="131" y2="206" stroke="rgb(146, 99, 0)" stroke-width="2"/>
  <line x1="195" y1="225" x2="185" y2="242" stroke="rgb(146, 99, 0)" stroke-width="2"/>
  <line x1="185" y1="242" x2="166" y2="242" stroke="rgb(146, 99, 0)" stroke-width="2"/>
  <line x1="166" y1="242" x2="155" y2="225" stroke="rgb(146, 99, 0)" stroke-width="2"/>
  <line x1="155" y1="225" x2="165" y2="208" stroke="rgb(146, 99, 0)" stroke-width="2"/>
  <line x1="165" y1="208" x2="185" y2="208" stroke="rgb(146, 99, 0)" stroke-width="2"/>
  <line x1="195" y1="225" x2="185" y2="208" stroke="rgb(146, 99, 0)" stroke-width="2"/>
  <line x1="245" y1="225" x2="237" y2="240" stroke="rgb(146, 99, 0)" stroke-width="2"/>
  <line x1="237" y1="240" x2="221" y2="244" stroke="rgb(146, 99, 0)" stroke-width="2"/>
  <line x1="221" y1="244" x2="207" y2="233" stroke="rgb(146, 99, 0)" stroke-width="2"/>
  <line x1="207" y1="233" x2="207" y2="217" stroke="rgb(146, 99, 0)" stroke-width="2"/>
  <line x1="207" y1="217" x2="221" y2="206" stroke="rgb(146, 99, 0)" stroke-width="2"/>
  <line x1="221" y1="206" x2="237" y2="210" stroke="rgb(146, 99, 0)" stroke-width="2"/>
  <line x1="245" y1="225" x2="237" y2="210" stroke="rgb(146, 99, 0)" stroke-width="2"/>
  <line x1="295" y1="225" x2="289" y2="239" stroke="rgb(146, 99, 0)" stroke-width="2"/>
  <line x1="289" y1="239" x2="275" y2="245" stroke="rgb(146, 99, 0)" stroke-width="2"/>
  <line x1="275" y1="245" x2="261" y2="239" stroke="rgb(146, 99, 0)" stroke-width="2"/>
  <line x1="261" y1="239" x2="255" y2="225" stroke="rgb(146, 99, 0)" stroke-width="2"/>
  <line x1="255" y1="225" x2="261" y2="211" stroke="rgb(146, 99, 0)" stroke-width="2"/>
  <line x1="261" y1="211" x2="275" y2="205" stroke="rgb(146, 99, 0)" stroke-width="2"/>
  <line x1="275" y1="205" x2="289" y2="211" stroke="rgb(146, 99, 0)" stroke-width="2"/>
  <line x1="295" y1="225" x2="289" y2="211" stroke="rgb(146, 99, 0)" stroke-width="2"/>
  <line x1="345" y1="225" x2="340" y2="237" stroke="rgb(146, 99, 0)" stroke-width="2"/>
  <line x1="340" y1="237" x2="328" y2="244" stroke="rgb(146, 99, 0)" stroke-width="2"/>
  <line x1="328" y1="244" x2="316" y2="242" stroke="rgb(146, 99, 0)" stroke-width="2"/>
  <line x1="316" y1="242" x2="307" y2="231" stroke="rgb(146, 99, 0)" stroke-width="2"/>
  <line x1="307" y1="231" x2="307" y2="219" stroke="rgb(146, 99, 0)" stroke-width="2"/>
  <line x1="307" y1="219" x2="315" y2="208" stroke="rgb(146, 99, 0)" stroke-width="2"/>
  <line x1="315" y1="208" x2="328" y2="206" stroke="rgb(146, 99, 0)" stroke-width="2"/>
  <line x1="328" y1="206" x2="340" y2="213" stroke="rgb(146, 99, 0)" stroke-width="2"/>
  <line x1="345" y1="225" x2="340" y2="213" stroke="rgb(146, 99, 0)" stroke-width="2"/>
  <line x1="395" y1="225" x2="391" y2="236" stroke="rgb(146, 99, 0)" stroke-width="2"/>
  <line x1="391" y1="236" x2="381" y2="244" stroke="rgb(146, 99, 0)" stroke-width="2"/>
  <line x1="381" y1="244" x2="369" y2="244" stroke="rgb(146, 99, 0)" stroke-width="2"/>
  <line x1="369" y1="244" x2="359" y2="236" stroke="rgb(146, 99, 0)" stroke-width="2"/>
  <line x1="359" y1="236" x2="355" y2="225" stroke="rgb(146, 99, 0)" stroke-width="2"/>
  <line x1="355" y1="225" x2="359" y2="214" stroke="rgb(146, 99, 0)" stroke-width="2"/>
  <line x1="359" y1="214" x2="369" y2="206" stroke="rgb(146, 99, 0)" stroke-width="2"/>
  <line x1="369" y1="206" x2="381" y2="206" stroke="rgb(146, 99, 0)" stroke-width="2"/>
  <line x1="381" y1="206" x2="391" y2="214" stroke="rgb(146, 99, 0)" stroke-width="2"/>
  <line x1="395" y1="225" x2="391" y2="214" stroke="rgb(146, 99, 0)" stroke-width="2"/>
  <line x1="45" y1="275" x2="16" y2="292" stroke="rgb(161, 66, 0)" stroke-width="2"/>
  <line x1="16" y1="292" x2="15" y2="258" stroke="rgb(161, 66, 0)" stroke-width="2"/>
  <line x1="45" y1="275" x2="15" y2="258" stroke="rgb(161, 66, 0)" stroke-width="2"/>
  <line x1="95" y1="275" x2="75" y2="295" stroke="rgb(161, 66, 0)" stroke-width="2"/>
  <line x1="75" y1="295" x2="55" y2="275" stroke="rgb(161, 66, 0)" stroke-width="2"/>
  <line x1="55" y1="275" x2="75" y2="255" stroke="rgb(161, 66, 0)" stroke-width="2"/>
  <line x1="95" y1="275" x2="75" y2="255" stroke="rgb(161, 66, 0)" stroke-width="2"/>
  <line x1="145" y1="275" x2="131" y2="294" stroke="rgb(161, 66, 0)" stroke-width="2"/>
  <line x1="131" y1="294" x2="109" y2="286" stroke="rgb(161, 66, 0)" stroke-width="2"/>
  <line x1="109" y1="286" x2="109" y2="264" stroke="rgb(161, 66, 0)" stroke-width="2"/>
  <line x1="109" y1="264" x2="131" y2="256" stroke="rgb(161, 66, 0)" stroke-width="2"/>
  <line x1="145" y1="275" x2="131" y2="256" stroke="rgb(161, 66, 0)" stroke-width="2"/>
  <line x1="195" y1="275" x2="185" y2="292" stroke="rgb(161, 66, 0)" stroke-width="2"/>
  <line x1="185" y1="292" x2="166" y2="292" stroke="rgb(161, 66, 0)" stroke-width="2"/>
  <line x1="166" y1="292" x2="155" y2="275" stroke="rgb(161, 66, 0)" stroke-width="2"/>
  <line x1="155" y1="275" x2="165" y2="258" stroke="rgb(161, 66, 0)" stroke-width="2"/>
  <line x1="165" y1="258" x2="185" y2="258" stroke="rgb(161, 66, 0)" stroke-width="2"/>
  <line x1="195" y1="275" x2="185" y2="258" stroke="rgb(161, 66, 0)" stroke-width="2"/>
  <line x1="245" y1="275" x2="237" y2="290" stroke="rgb(161, 66, 0)" stroke-width="2"/>
  <line x1="237" y1="290" x2="221" y2="294" stroke="rgb(161, 66, 0)" stroke-width="2"/>
  <line x1="221" y1="294" x2="207" y2="283" stroke="rgb(161, 66, 0)" stroke-width="2"/>
  <line x1="207" y1="283" x2="207" y2="267" stroke="rgb(161, 66, 0)" stroke-width="2"/>
  <line x1="207" y1="267" x2="221" y2="256" stroke="rgb(161, 66, 0)" stroke-width="2"/>
  <line x1="221" y1="256" x2="237" y2="260" stroke="rgb(161, 66, 0)" stroke-width="2"/>
  <line x1="245" y1="275" x2="237" y2="260" stroke="rgb(161, 66, 0)" stroke-width="2"/>
  <line x1="295" y1="275" x2="289" y2="289" stroke="rgb(161, 66, 0)" stroke-width="2"/>
  <line x1="289" y1="289" x2="275" y2="295" stroke="rgb(161, 66, 0)" stroke-width="2"/>
  <line x1="275" y1="295" x2="261" y2="289" stroke="rgb(161, 66, 0)" stroke-width="2"/>
  <line x1="261" y1="289" x2="255" y2="275" stroke="rgb(161, 66, 0)" stroke-width="2"/>
  <line x1="255" y1="275" x2="261" y2="261" stroke="rgb(161, 66, 0)" stroke-width="2"/>
  <line x1="261" y1="261" x2="275" y2="255" stroke="rgb(161, 66, 0)" stroke-width="2"/>
  <line x1="275" y1="255" x2="289" y2="261" stroke="rgb(161, 66, 0)" stroke-width="2"/>
  <line x1="295" y1="275" x2="289" y2="261" stroke="rgb(161, 66, 0)" stroke-width="2"/>
  <line x1="345" y1="275" x2="340" y2="287" stroke="rgb(161, 66, 0)" stroke-width="2"/>
  <line x1="340" y1="287" x2="328" y2="294" stroke="rgb(161, 66, 0)" stroke-width="2"/>
  <line x1="328" y1="294" x2="316" y2="292" stroke="rgb(161, 66, 0)" stroke-width="2"/>
  <line x1="316" y1="292" x2="307" y2="281" stroke="rgb(161, 66, 0)" stroke-width="2"/>
  <line x1="307" y1="281" x2="307" y2="269" stroke="rgb(161, 66, 0)" stroke-width="2"/>
  <line x1="307" y1="269" x2="315" y2="258" stroke="rgb(161, 66, 0)" stroke-width="2"/>
  <line x1="315" y1="258" x2="328" y2="256" stroke="rgb(161, 66, 0)" stroke-width="2"/>
  <line x1="328" y1="256" x2="340" y2="263" stroke="rgb(161, 66, 0)" stroke-width="2"/>
  <line x1="345" y1="275" x2="340" y2="263" stroke="rgb(161, 66, 0)" stroke-width="2"/>
  <line x1="395" y1="275" x2="391" y2="286" stroke="rgb(161, 66, 0)" stroke-width="2"/>
  <line x1="391" y1="286" x2="381" y2="294" stroke="rgb(161, 66, 0)" stroke-width="2"/>
  <line x1="381" y1="294" x2="369" y2="294" stroke="rgb(161, 66, 0)" stroke-width="2"/>
  <line x1="369" y1="294" x2="359" y2="286" stroke="rgb(161, 66, 0)" stroke-width="2"/>
  <line x1="359" y1="286" x2="355" y2="275" stroke="rgb(161, 66, 0)" stroke-width="2"/>
  <line x1="355" y1="275" x2="359" y2="264" stroke="rgb(161, 66, 0)" stroke-width="2"/>
  <line x1="359" y1="264" x2="369" y2="256" stroke="rgb(161, 66, 0)" stroke-width="2"/>
  <line x1="369" y1="256" x2="381" y2="256" stroke="rgb(161, 66, 0)" stroke-width="2"/>
  <line x1="381" y1="256" x2="391" y2="264" stroke="rgb(161, 66, 0)" stroke-width="2"/>
  <line x1="395" y1="275" x2="391" y2="264" stroke="rgb(161, 66, 0)" stroke-width="2"/>
  <line x1="45" y1="325" x2="16" y2="342" stroke="rgb(176, 34, 0)" stroke-width="2"/>
  <line x1="16" y1="342" x2="15" y2="308" stroke="rgb(176, 34, 0)" stroke-width="2"/>
  <line x1="45" y1="325" x2="15" y2="308" stroke="rgb(176, 34, 0)" stroke-width="2"/>
  <line x1="95" y1="325" x2="75" y2="345" stroke="rgb(176, 34, 0)" stroke-width="2"/>
  <line x1="75" y1="345" x2="55" y2="325" stroke="rgb(176, 34, 0)" stroke-width="2"/>
  <line x1="55" y1="325" x2="75" y2="305" stroke="rgb(176, 34, 0)" stroke-width="2"/>
  <line x1="95" y1="325" x2="75" y2="305" stroke="rgb(176, 34, 0)" stroke-width="2"/>
  <line x1="145" y1="325" x2="131" y2="344" stroke="rgb(176, 34, 0)" stroke-width="2"/>
  <line x1="131" y1="344" x2="109" y2="336" stroke="rgb(176, 34, 0)" stroke-width="2"/>
  <line x1="109" y1="336" x2="109" y2="314" stroke="rgb(176, 34, 0)" stroke-width="2"/>
  <line x1="109" y1="314" x2="131" y2="306" stroke="rgb(176, 34, 0)" stroke-width="2"/>
  <line x1="145" y1="325" x2="131" y2="306" stroke="rgb(176, 34, 0)" stroke-width="2"/>
  <line x1="195" y1="325" x2="185" y2="342" stroke="rgb(176, 34, 0)" stroke-width="2"/>
  <line x1="185" y1="342" x2="166" y2="342" stroke="rgb(176, 34, 0)" stroke-width="2"/>
  <line x1="166" y1="342" x2="155" y2="325" stroke="rgb(176, 34, 0)" stroke-width="2"/>
  <line x1="155" y1="325" x2="165" y2="308" stroke="rgb(176, 34, 0)" stroke-width="2"/>
  <line x1="165" y1="308" x2="185" y2="308" stroke="rgb(176, 34, 0)" stroke-width="2"/>
  <line x1="195" y1="325" x2="185" y2="308" stroke="rgb(176, 34, 0)" stroke-width="2"/>
  <line x1="245" y1="325" x2="237" y2="340" stroke="rgb(176, 34, 0)" stroke-width="2"/>
  <line x1="237" y1="340" x2="221" y2="344" stroke="rgb(176, 34, 0)" stroke-width="2"/>
  <line x1="221" y1="344" x2="207" y2="333" stroke="rgb(176, 34, 0)" stroke-width="2"/>
  <line x1="207" y1="333" x2="207" y2="317" stroke="rgb(176, 34, 0)" stroke-width="2"/>
  <line x1="207" y1="317" x2="221" y2="306" stroke="rgb(176, 34, 0)" stroke-width="2"/>
  <line x1="221" y1="306" x2="237" y2="310" stroke="rgb(176, 34, 0)" stroke-width="2"/>
  <line x1="245" y1="325" x2="237" y2="310" stroke="rgb(176, 34, 0)" stroke-width="2"/>
  <line x1="295" y1="325" x2="289" y2="339" stroke="rgb(176, 34, 0)" stroke-width="2"/>
  <line x1="289" y1="339" x2="275" y2="345" stroke="rgb(176, 34, 0)" stroke-width="2"/>
  <line x1="275" y1="345" x2="261" y2="339" stroke="rgb(176, 34, 0)" stroke-width="2"/>
  <line x1="261" y1="339" x2="255" y2="325" stroke="rgb(176, 34, 0)" stroke-width="2"/>
  <line x1="255" y1="325" x2="261" y2="311" stroke="rgb(176, 34, 0)" stroke-width="2"/>
  <line x1="261" y1="311" x2="275" y2="305" stroke="rgb(176, 34, 0)" stroke-width="2"/>
  <line x1="275" y1="305" x2="289" y2="311" stroke="rgb(176, 34, 0)" stroke-width="2"/>
  <line x1="295" y1="325" x2="289" y2="311" stroke="rgb(176, 34, 0)" stroke-width="2"/>
  <line x1="345" y1="325" x2="340" y2="337" stroke="rgb(176, 34, 0)" stroke-width="2"/>
  <line x1="340" y1="337" x2="328" y2="344" stroke="rgb(176, 34, 0)" stroke-width="2"/>
  <line x1="328" y1="344" x2="316" y2="342" stroke="rgb(176, 34, 0)" stroke-width="2"/>
  <line x1="316" y1="342" x2="307" y2="331" stroke="rgb(176, 34, 0)" stroke-width="2"/>
  <line x1="307" y1="331" x2="307" y2="319" stroke="rgb(176, 34, 0)" stroke-width="2"/>
  <line x1="307" y1="319" x2="315" y2="308" stroke="rgb(176, 34, 0)" stroke-width="2"/>
  <line x1="315" y1="308" x2="328" y2="306" stroke="rgb(176, 34, 0)" stroke-width="2"/>
  <line x1="328" y1="306" x2="340" y2="313" stroke="rgb(176, 34, 0)" stroke-width="2"/>
  <line x1="345" y1="325" x2="340" y2="313" stroke="rgb(176, 34, 0)" stroke-width="2"/>
  <line x1="395" y1="325" x2="391" y2="336" stroke="rgb(176, 34, 0)" stroke-width="2"/>
  <line x1="391" y1="336" x2="381" y2="344" stroke="rgb(176, 34, 0)" stroke-width="2"/>
  <line x1="381" y1="344" x2="369" y2="344" stroke="rgb(176, 34, 0)" stroke-width="2"/>
  <line x1="369" y1="344" x2="359" y2="336" stroke="rgb(176, 34, 0)" stroke-width="2"/>
  <line x1="359" y1="336" x2="355" y2="325" stroke="rgb(176, 34, 0)" stroke-width="2"/>
  <line x1="355" y1="325" x2="359" y2="314" stroke="rgb(176, 34, 0)" stroke-width="2"/>
  <line x1="359" y1="314" x2="369" y2="306" stroke="rgb(176, 34, 0)" stroke-width="2"/>
  <line x1="369" y1="306" x2="381" y2="306" stroke="rgb(176, 34, 0)" stroke-width="2"/>
  <line x1="381" y1="306" x2="391" y2="314" stroke="rgb(176, 34, 0)" stroke-width="2"/>
  <line x1="395" y1="325" x2="391" y2="314" stroke="rgb(176, 34, 0)" stroke-width="2"/>
  <line x1="45" y1="375" x2="16" y2="392" stroke="rgb(191, 2, 0)" stroke-width="2"/>
  <line x1="16" y1="392" x2="15" y2="358" stroke="rgb(191, 2, 0)" stroke-width="2"/>
  <line x1="45" y1="375" x2="15" y2="358" stroke="rgb(191, 2, 0)" stroke-width="2"/>
  <line x1="95" y1="375" x2="75" y2="395" stroke="rgb(191, 2, 0)" stroke-width="2"/>
  <line x1="75" y1="395" x2="55" y2="375" stroke="rgb(191, 2, 0)" stroke-width="2"/>
  <line x1="55" y1="375" x2="75" y2="355" stroke="rgb(191, 2, 0)" stroke-width="2"/>
  <line x1="95" y1="375" x2="75" y2="355" stroke="rgb(191, 2, 0)" stroke-width="2"/>
  <line x1="145" y1="375" x2="131" y2="394" stroke="rgb(191, 2, 0)" stroke-width="2"/>
  <line x1="131" y1="394" x2="109" y2="386" stroke="rgb(191, 2, 0)" stroke-width="2"/>
  <line x1="109" y1="386" x2="109" y2="364" stroke="rgb(191, 2, 0)" stroke-width="2"/>
  <line x1="109" y1="364" x2="131" y2="356" stroke="rgb(191, 2, 0)" stroke-width="2"/>
  <line x1="145" y1="375" x2="131" y2="356" stroke="rgb(191, 2, 0)" stroke-width="2"/>
  <line x1="195" y1="375" x2="185" y2="392" stroke="rgb(191, 2, 0)" stroke-width="2"/>
  <line x1="185" y1="392" x2="166" y2="392" stroke="rgb(191, 2, 0)" stroke-width="2"/>
  <line x1="166" y1="392" x2="155" y2="375" stroke="rgb(191, 2, 0)" stroke-width="2"/>
  <line x1="155" y1="375" x2="165" y2="358" stroke="rgb(191, 2, 0)" stroke-width="2"/>
  <line x1="165" y1="358" x2="185" y2="358" stroke="rgb(191, 2, 0)" stroke-width="2"/>
  <line x1="195" y1="375" x2="185" y2="358" stroke="rgb(191, 2, 0)" stroke-width="2"/>
  <line x1="245" y1="375" x2="237" y2="390" stroke="rgb(191, 2, 0)" stroke-width="2"/>
  <line x1="237" y1="390" x2="221" y2="394" stroke="rgb(191, 2, 0)" stroke-width="2"/>
  <line x1="221" y1="394" x2="207" y2="383" stroke="rgb(191, 2, 0)" stroke-width="2"/>
  <line x1="207" y1="383" x2="207" y2="367" stroke="rgb(191, 2, 0)" stroke-width="2"/>
  <line x1="207" y1="367" x2="221" y2="356" stroke="rgb(191, 2, 0)" stroke-width="2"/>
  <line x1="221" y1="356" x2="237" y2="360" stroke="rgb(191, 2, 0)" stroke-width="2"/>
  <line x1="245" y1="375" x2="237" y2="360" stroke="rgb(191, 2, 0)" stroke-width="2"/>
  <line x1="295" y1="375" x2="289" y2="389" stroke="rgb(191, 2, 0)" stroke-width="2"/>
  <line x1="289" y1="389" x2="275" y2="395" stroke="rgb(191, 2, 0)" stroke-width="2"/>
  <line x1="275" y1="395" x2="261" y2="389" stroke="rgb(191, 2, 0)" stroke-width="2"/>
  <line x1="261" y1="389" x2="255" y2="375" stroke="rgb(191, 2, 0)" stroke-width="2"/>
  <line x1="255" y1="375" x2="261" y2="361" stroke="rgb(191, 2, 0)" stroke-width="2"/>
  <line x1="261" y1="361" x2="275" y2="355" stroke="rgb(191, 2, 0)" stroke-width="2"/>
  <line x1="275" y1="355" x2="289" y2="361" stroke="rgb(191, 2, 0)" stroke-width="2"/>
  <line x1="295" y1="375" x2="289" y2="361" stroke="rgb(191, 2, 0)" stroke-width="2"/>
  <line x1="345" y1="375" x2="340" y2="387" stroke="rgb(191, 2, 0)" stroke-width="2"/>
  <line x1="340" y1="387" x2="328" y2="394" stroke="rgb(191, 2, 0)" stroke-width="2"/>
  <line x1="328" y1="394" x2="316" y2="392" stroke="rgb(191, 2, 0)" stroke-width="2"/>
  <line x1="316" y1="392" x2="307" y2="381" stroke="rgb(191, 2, 0)" stroke-width="2"/>
  <line x1="307" y1="381" x2="307" y2="369" stroke="rgb(191, 2, 0)" stroke-width="2"/>
  <line x1="307" y1="369" x2="315" y2="358" stroke="rgb(191, 2, 0)" stroke-width="2"/>
  <line x1="315" y1="358" x2="328" y2="356" stroke="rgb(191, 2, 0)" stroke-width="2"/>
  <line x1="328" y1="356" x2="340" y2="363" stroke="rgb(191, 2, 0)" stroke-width="2"/>
  <line x1="345" y1="375" x2="340" y2="363" stroke="rgb(191, 2, 0)" stroke-width="2"/>
  <line x1="395" y1="375" x2="391" y2="386" stroke="rgb(191, 2, 0)" stroke-width="2"/>
  <line x1="391" y1="386" x2="381" y2="394" stroke="rgb(191, 2, 0)" stroke-width="2"/>
  <line x1="381" y1="394" x2="369" y2="394" stroke="rgb(191, 2, 0)" stroke-width="2"/>
  <line x1="369" y1="394" x2="359" y2="386" stroke="rgb(191, 2, 0)" stroke-width="2"/>
  <line x1="359" y1="386" x2="355" y2="375" stroke="rgb(191, 2, 0)" stroke-width="2"/>
  <line x1="355" y1="375" x2="359" y2="364" stroke="rgb(191, 2, 0)" stroke-width="2"/>
  <line x1="359" y1="364" x2="369" y2="356" stroke="rgb(191, 2, 0)" stroke-width="2"/>
  <line x1="369" y1="356" x2="381" y2="356" stroke="rgb(191, 2, 0)" stroke-width="2"/>
  <line x1="381" y1="356" x2="391" y2="364" stroke="rgb(191, 2, 0)" stroke-width="2"/>
  <line x1="395" y1="375" x2="391" y2="364" stroke="rgb(191, 2, 0)" stroke-width="2"/>
</svg>
